#N canvas 49 80 1755 1240 10;
#X msg 422 98 devices;
#X msg 564 100 close;
#X obj 384 181 print;
#X msg 494 99 open 4;
#X obj 433 183 sel 13 10;
#X obj 430 218 zl group 100;
#X obj 430 244 iem_alisttosym;
#X obj 429 273 fromsymbol;
#X floatatom 429 376 5 0 0 0 - - -;
#X floatatom 487 377 5 0 0 0 - - -;
#X floatatom 548 378 5 0 0 0 - - -;
#X floatatom 600 378 5 0 0 0 - - -;
#X floatatom 654 376 5 0 0 0 - - -;
#X obj 433 148 comport 1 9600;
#X obj 428 313 unpack f f f f f;
#X obj 654 428 tgl 15 0 empty empty empty 17 7 0 10 -262144 -1 -1 0
1;
#X obj 654 404 sel 1;
#X obj 2616 763 catch~ out;
#X obj 2618 318 loadbang;
#X obj 2613 416 s note1;
#X msg 2613 372 36;
#X msg 2676 373 55;
#X msg 2737 373 60;
#X msg 2919 372 75;
#X obj 654 457 s toggle;
#X obj 2616 186 bng 15 250 50 0 empty empty empty 17 7 0 10 -262144
-1 -1;
#X obj 2616 155 loadbang;
#X obj 2616 217 s randomize;
#X obj 2612 500 r toggle;
#X obj 2612 529 metro 3;
#X obj 2627 562 osc~ 4;
#X obj 2612 595 snapshot~;
#X floatatom 2612 621 5 0 0 0 - - -;
#X obj 2612 649 * 0.075;
#X obj 2612 676 s LFO;
#X obj 1303 193 r LFO;
#X obj 1318 221 r note1;
#X floatatom 1318 252 5 0 0 0 - - -;
#X obj 1303 280 +;
#X floatatom 1301 313 5 0 0 0 - - -;
#X obj 1301 339 mtof;
#X floatatom 1301 366 5 0 0 0 - - -;
#X obj 1300 393 phasor~;
#X obj 1299 421 lop~ 6000;
#X obj 1299 476 *~;
#X obj 1298 500 *~ 0.1;
#X obj 1298 526 throw~ out;
#X obj 1389 189 r toggle;
#X obj 1457 185 + 10000;
#X obj 1457 155 random 30000;
#X obj 1458 124 r randomize;
#X obj 1389 241 metro 10000;
#X floatatom 1456 215 5 0 0 0 - - -;
#X obj 1389 276 bng 15 250 50 0 empty empty empty 17 7 0 10 -262144
-1 -1;
#X msg 1389 365 1 300;
#X obj 1388 401 line 0 3;
#X floatatom 1387 427 5 0 0 0 - - -;
#X msg 1451 364 0 700;
#X obj 1451 336 delay 2000;
#X obj 1521 225 r randomize;
#X obj 1521 253 random 3000;
#X obj 1521 282 + 1000;
#X floatatom 1521 308 5 0 0 0 - - -;
#X obj 1654 189 r LFO;
#X floatatom 1669 248 5 0 0 0 - - -;
#X obj 1654 276 +;
#X floatatom 1652 309 5 0 0 0 - - -;
#X obj 1652 335 mtof;
#X floatatom 1652 362 5 0 0 0 - - -;
#X obj 1651 389 phasor~;
#X obj 1650 417 lop~ 6000;
#X obj 1650 472 *~;
#X obj 1649 496 *~ 0.1;
#X obj 1649 522 throw~ out;
#X obj 1740 185 r toggle;
#X obj 1808 181 + 10000;
#X obj 1808 151 random 30000;
#X obj 1809 120 r randomize;
#X obj 1740 237 metro 10000;
#X floatatom 1807 211 5 0 0 0 - - -;
#X obj 1740 272 bng 15 250 50 0 empty empty empty 17 7 0 10 -262144
-1 -1;
#X obj 1739 397 line 0 3;
#X floatatom 1738 423 5 0 0 0 - - -;
#X msg 1802 360 0 700;
#X obj 1802 332 delay 2000;
#X obj 1872 221 r randomize;
#X obj 1872 249 random 3000;
#X obj 1872 278 + 1000;
#X floatatom 1872 304 5 0 0 0 - - -;
#X obj 2020 186 r LFO;
#X floatatom 2035 245 5 0 0 0 - - -;
#X obj 2020 273 +;
#X floatatom 2018 306 5 0 0 0 - - -;
#X obj 2018 332 mtof;
#X floatatom 2018 359 5 0 0 0 - - -;
#X obj 2017 386 phasor~;
#X obj 2016 414 lop~ 6000;
#X obj 2016 469 *~;
#X obj 2015 493 *~ 0.1;
#X obj 2015 519 throw~ out;
#X obj 2106 182 r toggle;
#X obj 2174 178 + 10000;
#X obj 2174 148 random 30000;
#X obj 2175 117 r randomize;
#X floatatom 2173 208 5 0 0 0 - - -;
#X obj 2106 269 bng 15 250 50 0 empty empty empty 17 7 0 10 -262144
-1 -1;
#X msg 2106 358 1 300;
#X obj 2105 394 line 0 3;
#X floatatom 2104 420 5 0 0 0 - - -;
#X msg 2168 357 0 700;
#X obj 2238 218 r randomize;
#X obj 2238 246 random 3000;
#X obj 2238 275 + 1000;
#X floatatom 2238 301 5 0 0 0 - - -;
#X obj 931 692 r LFO;
#X floatatom 946 751 5 0 0 0 - - -;
#X obj 931 779 +;
#X floatatom 929 812 5 0 0 0 - - -;
#X obj 929 838 mtof;
#X floatatom 929 865 5 0 0 0 - - -;
#X obj 928 892 phasor~;
#X obj 927 920 lop~ 6000;
#X obj 927 975 *~;
#X obj 926 999 *~ 0.1;
#X obj 926 1025 throw~ out;
#X obj 1017 688 r toggle;
#X obj 1085 684 + 10000;
#X obj 1085 654 random 30000;
#X obj 1086 623 r randomize;
#X obj 1017 740 metro 10000;
#X floatatom 1084 714 5 0 0 0 - - -;
#X obj 1017 775 bng 15 250 50 0 empty empty empty 17 7 0 10 -262144
-1 -1;
#X obj 1016 900 line 0 3;
#X floatatom 1015 926 5 0 0 0 - - -;
#X msg 1079 863 0 700;
#X obj 1079 835 delay 2000;
#X obj 1149 724 r randomize;
#X obj 1149 752 random 3000;
#X obj 1149 781 + 1000;
#X floatatom 1149 807 5 0 0 0 - - -;
#X obj 1291 675 r LFO;
#X floatatom 1306 734 5 0 0 0 - - -;
#X obj 1291 762 +;
#X floatatom 1289 795 5 0 0 0 - - -;
#X obj 1289 821 mtof;
#X floatatom 1289 848 5 0 0 0 - - -;
#X obj 1288 875 phasor~;
#X obj 1287 903 lop~ 6000;
#X obj 1287 958 *~;
#X obj 1286 982 *~ 0.1;
#X obj 1286 1008 throw~ out;
#X obj 1377 671 r toggle;
#X obj 1445 667 + 10000;
#X obj 1445 637 random 30000;
#X obj 1446 606 r randomize;
#X obj 1377 723 metro 10000;
#X floatatom 1444 697 5 0 0 0 - - -;
#X obj 1377 758 bng 15 250 50 0 empty empty empty 17 7 0 10 -262144
-1 -1;
#X obj 1376 883 line 0 3;
#X floatatom 1375 909 5 0 0 0 - - -;
#X msg 1439 846 0 700;
#X obj 1439 818 delay 2000;
#X obj 1509 707 r randomize;
#X obj 1509 735 random 3000;
#X obj 1509 764 + 1000;
#X floatatom 1509 790 5 0 0 0 - - -;
#X obj 1662 668 r LFO;
#X floatatom 1677 727 5 0 0 0 - - -;
#X obj 1662 755 +;
#X floatatom 1660 788 5 0 0 0 - - -;
#X obj 1660 814 mtof;
#X floatatom 1660 841 5 0 0 0 - - -;
#X obj 1659 868 phasor~;
#X obj 1658 896 lop~ 6000;
#X obj 1658 951 *~;
#X obj 1657 975 *~ 0.1;
#X obj 1657 1001 throw~ out;
#X obj 1748 664 r toggle;
#X obj 1816 660 + 10000;
#X obj 1816 630 random 30000;
#X obj 1817 599 r randomize;
#X obj 1748 716 metro 10000;
#X floatatom 1815 690 5 0 0 0 - - -;
#X obj 1748 751 bng 15 250 50 0 empty empty empty 17 7 0 10 -262144
-1 -1;
#X obj 1747 876 line 0 3;
#X floatatom 1746 902 5 0 0 0 - - -;
#X obj 1810 811 delay 2000;
#X obj 1880 700 r randomize;
#X obj 1880 728 random 3000;
#X obj 1880 757 + 1000;
#X floatatom 1880 783 5 0 0 0 - - -;
#X obj 1669 217 r note2;
#X obj 2035 214 r note3;
#X obj 946 720 r note4;
#X obj 1306 703 r note5;
#X obj 1677 696 r note6;
#X obj 2676 417 s note2;
#X obj 2737 417 s note3;
#X obj 2799 416 s note4;
#X obj 2858 416 s note5;
#X obj 2919 416 s note6;
#X obj 2696 813 hip~ 600;
#X obj 2697 841 delwrite~ delBuff 900;
#X obj 2696 866 delread~ delBuff 900;
#X obj 2696 892 *~ 0.9;
#X obj 2695 919 lop~ 4000;
#X obj 2696 949 throw~ out;
#X obj 945 203 r LFO;
#X floatatom 960 262 5 0 0 0 - - -;
#X obj 945 290 +;
#X floatatom 943 323 5 0 0 0 - - -;
#X obj 943 349 mtof;
#X floatatom 943 376 5 0 0 0 - - -;
#X obj 942 403 phasor~;
#X obj 941 486 *~;
#X obj 940 510 *~ 0.1;
#X obj 940 536 throw~ out;
#X obj 1031 199 r toggle;
#X obj 1099 195 + 10000;
#X obj 1099 165 random 30000;
#X obj 1100 134 r randomize;
#X obj 1031 251 metro 10000;
#X floatatom 1098 225 5 0 0 0 - - -;
#X obj 1031 286 bng 15 250 50 0 empty empty empty 17 7 0 10 -262144
-1 -1;
#X obj 1030 411 line 0 3;
#X floatatom 1029 437 5 0 0 0 - - -;
#X obj 1163 235 r randomize;
#X obj 1163 263 random 3000;
#X obj 1163 292 + 1000;
#X floatatom 1163 318 5 0 0 0 - - -;
#X obj 960 230 r note7;
#X obj 2985 417 s note7;
#X msg 2985 373 20;
#X msg 2799 372 54;
#X msg 2858 372 65;
#X obj 941 431 lop~ 6000;
#X msg 1031 376 1 700;
#X msg 1093 374 0 300;
#X msg 1810 839 0 800;
#X msg 1748 840 0.5 200;
#X msg 1377 847 0.7 300;
#X obj 2168 329 delay 2000;
#X obj 2106 233 metro 10000;
#X obj 1093 346 delay 6000;
#X msg 1017 864 0.7 300;
#X msg 1740 361 0.8 300;
#X obj 2141 630 r LFO;
#X floatatom 2156 689 5 0 0 0 - - -;
#X obj 2141 717 +;
#X floatatom 2139 750 5 0 0 0 - - -;
#X obj 2139 776 mtof;
#X floatatom 2139 803 5 0 0 0 - - -;
#X obj 2138 830 phasor~;
#X obj 2137 858 lop~ 6000;
#X obj 2137 913 *~;
#X obj 2136 937 *~ 0.1;
#X obj 2136 963 throw~ out;
#X obj 2227 626 r toggle;
#X obj 2295 622 + 10000;
#X obj 2295 592 random 30000;
#X obj 2296 561 r randomize;
#X obj 2227 678 metro 10000;
#X floatatom 2294 652 5 0 0 0 - - -;
#X obj 2227 713 bng 15 250 50 0 empty empty empty 17 7 0 10 -262144
-1 -1;
#X obj 2226 838 line 0 3;
#X floatatom 2225 864 5 0 0 0 - - -;
#X obj 2289 773 delay 2000;
#X obj 2359 662 r randomize;
#X obj 2359 690 random 3000;
#X obj 2359 719 + 1000;
#X floatatom 2359 745 5 0 0 0 - - -;
#X msg 2289 801 0 800;
#X msg 2227 802 0.5 200;
#X obj 2156 658 r note8;
#X obj 3051 418 s note8;
#X msg 3051 374 80;
#X obj 2615 810 dac~;
#X text 947 49 Adapted from Pd for Airports (Creating Ambient Music
in Pure Data) | Simon Hutchinson - https://www.youtube.com/watch?v=7sTrn39TT7k
;
#X obj 427 781 gate 2;
#X floatatom 245 808 5 0 0 0 - - -;
#X obj 242 884 / 1008;
#X obj 242 926 * 440;
#X obj 242 969 + 440;
#X floatatom 242 1011 5 0 0 0 - - -;
#X obj 144 927 loadbang;
#X msg 144 960 1320;
#X obj 201 1052 -;
#X obj 198 1018 bng 15 250 50 0 empty empty empty 17 7 0 10 -262144
-1 -1;
#X floatatom 200 1090 5 0 0 0 - - -;
#X obj 308 1153 + 5;
#X obj 127 1155 / 4;
#X obj 390 1156 * 2;
#X obj 126 1197 phasor~;
#X obj 222 1198 phasor~;
#X obj 306 1200 phasor~;
#X obj 385 1199 phasor~;
#X obj 128 1236 *~ 0.25;
#X obj 401 1271 *~;
#X obj 305 1239 *~ 0.25;
#X obj 385 1237 *~ 0.5;
#X obj 403 1309 *~ 0.5;
#X obj 406 1394 freeverb~;
#X obj 406 1468 dac~;
#X obj 527 962 line~;
#X floatatom 527 899 5 0 0 0 - - -;
#X obj 597 1212 loadbang;
#X obj 596 1241 bng 15 250 50 0 empty empty empty 17 7 0 10 -262144
-1 -1;
#X msg 574 1293 roomsize 0.8;
#X msg 677 1294 wet 0.6;
#X msg 756 1293 dry 0.4;
#X msg 530 931 \$1 20;
#X obj 498 568 freeverb~;
#X obj 501 486 osc~;
#X text 393 40 Adapted from Arduino To Pure Data (Tutorial) https://www.youtube.com/watch?v=eVW0FD9g_Sk
;
#X obj 595 476 osc~;
#X obj 594 507 *~ 1;
#X text 40 747 Adapted from Let’s Create a Ribbon Synth! (Arduino
+ Max/MSP Or Pure Data) https://www.youtube.com/watch?v=Cdc2U2_qrhk
;
#X obj 635 761 catch~ out2;
#X obj 637 806 dac~;
#X obj 495 677 throw~ out2;
#X obj 591 677 throw~ out2;
#X obj 406 1348 lop~ 4000;
#X obj 417 749 > 10;
#X obj 243 845 - 30;
#X obj 407 1428 *~ 0.15;
#X obj 468 1425 *~ 0.15;
#X obj 499 530 *~ 1;
#X obj 361 374 noise~;
#X obj 358 495 dac~;
#X obj 499 603 *~ 0.25;
#X obj 569 602 *~ 0.25;
#X obj 359 416 bp~ 220 1;
#X obj 358 463 *~ 0.2;
#X obj 596 443 / 7;
#X obj 501 449 / 5;
#X text 518 709 Adapted from Pd Patch from Scratch: Subharmonic Chords
(Pure Data \, No Talking \, undertones) | Simon Hutchinson https://youtu.be/fmf__JSh3Yc
;
#X text 22 435 Adapted from Subtractive Synth (Pure Data Tutorial #3)
https://www.youtube.com/watch?v=FVYkQFP1_D4;
#X connect 0 0 13 0;
#X connect 1 0 13 0;
#X connect 3 0 13 0;
#X connect 4 0 5 0;
#X connect 4 2 5 0;
#X connect 5 0 6 0;
#X connect 6 0 7 0;
#X connect 7 0 14 0;
#X connect 8 0 331 1;
#X connect 9 0 322 0;
#X connect 9 0 278 1;
#X connect 10 0 334 0;
#X connect 11 0 333 0;
#X connect 12 0 16 0;
#X connect 13 0 2 0;
#X connect 13 0 4 0;
#X connect 14 0 8 0;
#X connect 14 1 9 0;
#X connect 14 2 10 0;
#X connect 14 3 11 0;
#X connect 14 4 12 0;
#X connect 15 0 24 0;
#X connect 16 0 15 0;
#X connect 17 0 201 0;
#X connect 17 0 276 0;
#X connect 17 0 276 1;
#X connect 18 0 20 0;
#X connect 18 0 21 0;
#X connect 18 0 22 0;
#X connect 18 0 23 0;
#X connect 18 0 233 0;
#X connect 18 0 234 0;
#X connect 18 0 232 0;
#X connect 18 0 275 0;
#X connect 20 0 19 0;
#X connect 21 0 196 0;
#X connect 22 0 197 0;
#X connect 23 0 200 0;
#X connect 25 0 27 0;
#X connect 26 0 25 0;
#X connect 28 0 29 0;
#X connect 29 0 31 0;
#X connect 30 0 31 0;
#X connect 31 0 32 0;
#X connect 32 0 33 0;
#X connect 33 0 34 0;
#X connect 35 0 38 0;
#X connect 36 0 37 0;
#X connect 37 0 38 1;
#X connect 38 0 39 0;
#X connect 39 0 40 0;
#X connect 40 0 41 0;
#X connect 41 0 42 0;
#X connect 42 0 43 0;
#X connect 43 0 44 0;
#X connect 44 0 45 0;
#X connect 45 0 46 0;
#X connect 47 0 51 0;
#X connect 48 0 52 0;
#X connect 49 0 48 0;
#X connect 50 0 49 0;
#X connect 51 0 53 0;
#X connect 52 0 51 1;
#X connect 53 0 54 0;
#X connect 53 0 58 0;
#X connect 54 0 55 0;
#X connect 55 0 56 0;
#X connect 56 0 44 1;
#X connect 57 0 55 0;
#X connect 58 0 57 0;
#X connect 59 0 60 0;
#X connect 60 0 61 0;
#X connect 61 0 62 0;
#X connect 62 0 58 1;
#X connect 63 0 65 0;
#X connect 64 0 65 1;
#X connect 65 0 66 0;
#X connect 66 0 67 0;
#X connect 67 0 68 0;
#X connect 68 0 69 0;
#X connect 69 0 70 0;
#X connect 70 0 71 0;
#X connect 71 0 72 0;
#X connect 72 0 73 0;
#X connect 74 0 78 0;
#X connect 75 0 79 0;
#X connect 76 0 75 0;
#X connect 77 0 76 0;
#X connect 78 0 80 0;
#X connect 79 0 78 1;
#X connect 80 0 245 0;
#X connect 80 0 84 0;
#X connect 81 0 82 0;
#X connect 82 0 71 1;
#X connect 83 0 81 0;
#X connect 84 0 83 0;
#X connect 85 0 86 0;
#X connect 86 0 87 0;
#X connect 87 0 88 0;
#X connect 88 0 84 1;
#X connect 89 0 91 0;
#X connect 90 0 91 1;
#X connect 91 0 92 0;
#X connect 92 0 93 0;
#X connect 93 0 94 0;
#X connect 94 0 95 0;
#X connect 95 0 96 0;
#X connect 96 0 97 0;
#X connect 97 0 98 0;
#X connect 98 0 99 0;
#X connect 100 0 242 0;
#X connect 101 0 104 0;
#X connect 102 0 101 0;
#X connect 103 0 102 0;
#X connect 104 0 242 1;
#X connect 105 0 106 0;
#X connect 105 0 241 0;
#X connect 106 0 107 0;
#X connect 107 0 108 0;
#X connect 108 0 97 1;
#X connect 109 0 107 0;
#X connect 110 0 111 0;
#X connect 111 0 112 0;
#X connect 112 0 113 0;
#X connect 113 0 241 1;
#X connect 114 0 116 0;
#X connect 115 0 116 1;
#X connect 116 0 117 0;
#X connect 117 0 118 0;
#X connect 118 0 119 0;
#X connect 119 0 120 0;
#X connect 120 0 121 0;
#X connect 121 0 122 0;
#X connect 122 0 123 0;
#X connect 123 0 124 0;
#X connect 125 0 129 0;
#X connect 126 0 130 0;
#X connect 127 0 126 0;
#X connect 128 0 127 0;
#X connect 129 0 131 0;
#X connect 130 0 129 1;
#X connect 131 0 244 0;
#X connect 131 0 135 0;
#X connect 132 0 133 0;
#X connect 133 0 122 1;
#X connect 134 0 132 0;
#X connect 135 0 134 0;
#X connect 136 0 137 0;
#X connect 137 0 138 0;
#X connect 138 0 139 0;
#X connect 139 0 135 1;
#X connect 140 0 142 0;
#X connect 141 0 142 1;
#X connect 142 0 143 0;
#X connect 143 0 144 0;
#X connect 144 0 145 0;
#X connect 145 0 146 0;
#X connect 146 0 147 0;
#X connect 147 0 148 0;
#X connect 148 0 149 0;
#X connect 149 0 150 0;
#X connect 151 0 155 0;
#X connect 152 0 156 0;
#X connect 153 0 152 0;
#X connect 154 0 153 0;
#X connect 155 0 157 0;
#X connect 156 0 155 1;
#X connect 157 0 240 0;
#X connect 157 0 161 0;
#X connect 158 0 159 0;
#X connect 159 0 148 1;
#X connect 160 0 158 0;
#X connect 161 0 160 0;
#X connect 162 0 163 0;
#X connect 163 0 164 0;
#X connect 164 0 165 0;
#X connect 165 0 161 1;
#X connect 166 0 168 0;
#X connect 167 0 168 1;
#X connect 168 0 169 0;
#X connect 169 0 170 0;
#X connect 170 0 171 0;
#X connect 171 0 172 0;
#X connect 172 0 173 0;
#X connect 173 0 174 0;
#X connect 174 0 175 0;
#X connect 175 0 176 0;
#X connect 177 0 181 0;
#X connect 178 0 182 0;
#X connect 179 0 178 0;
#X connect 180 0 179 0;
#X connect 181 0 183 0;
#X connect 182 0 181 1;
#X connect 183 0 239 0;
#X connect 183 0 186 0;
#X connect 184 0 185 0;
#X connect 185 0 174 1;
#X connect 186 0 238 0;
#X connect 187 0 188 0;
#X connect 188 0 189 0;
#X connect 189 0 190 0;
#X connect 190 0 186 1;
#X connect 191 0 64 0;
#X connect 192 0 90 0;
#X connect 193 0 115 0;
#X connect 194 0 141 0;
#X connect 195 0 167 0;
#X connect 201 0 202 0;
#X connect 203 0 204 0;
#X connect 204 0 205 0;
#X connect 205 0 206 0;
#X connect 207 0 209 0;
#X connect 208 0 209 1;
#X connect 209 0 210 0;
#X connect 210 0 211 0;
#X connect 211 0 212 0;
#X connect 212 0 213 0;
#X connect 213 0 235 0;
#X connect 214 0 215 0;
#X connect 215 0 216 0;
#X connect 217 0 221 0;
#X connect 218 0 222 0;
#X connect 219 0 218 0;
#X connect 220 0 219 0;
#X connect 221 0 223 0;
#X connect 222 0 221 1;
#X connect 223 0 236 0;
#X connect 223 0 243 0;
#X connect 224 0 225 0;
#X connect 225 0 214 1;
#X connect 226 0 227 0;
#X connect 227 0 228 0;
#X connect 228 0 229 0;
#X connect 229 0 243 1;
#X connect 230 0 208 0;
#X connect 232 0 231 0;
#X connect 233 0 198 0;
#X connect 234 0 199 0;
#X connect 235 0 214 0;
#X connect 236 0 224 0;
#X connect 237 0 224 0;
#X connect 238 0 184 0;
#X connect 239 0 184 0;
#X connect 240 0 158 0;
#X connect 241 0 109 0;
#X connect 242 0 105 0;
#X connect 243 0 237 0;
#X connect 244 0 132 0;
#X connect 245 0 81 0;
#X connect 246 0 248 0;
#X connect 247 0 248 1;
#X connect 248 0 249 0;
#X connect 249 0 250 0;
#X connect 250 0 251 0;
#X connect 251 0 252 0;
#X connect 252 0 253 0;
#X connect 253 0 254 0;
#X connect 254 0 255 0;
#X connect 255 0 256 0;
#X connect 257 0 261 0;
#X connect 258 0 262 0;
#X connect 259 0 258 0;
#X connect 260 0 259 0;
#X connect 261 0 263 0;
#X connect 262 0 261 1;
#X connect 263 0 272 0;
#X connect 263 0 266 0;
#X connect 264 0 265 0;
#X connect 265 0 254 1;
#X connect 266 0 271 0;
#X connect 267 0 268 0;
#X connect 268 0 269 0;
#X connect 269 0 270 0;
#X connect 270 0 266 1;
#X connect 271 0 264 0;
#X connect 272 0 264 0;
#X connect 273 0 247 0;
#X connect 275 0 274 0;
#X connect 278 0 279 0;
#X connect 279 0 323 0;
#X connect 280 0 281 0;
#X connect 281 0 282 0;
#X connect 282 0 283 0;
#X connect 283 0 286 1;
#X connect 283 0 287 0;
#X connect 284 0 285 0;
#X connect 285 0 286 0;
#X connect 286 0 288 0;
#X connect 287 0 286 0;
#X connect 288 0 290 0;
#X connect 288 0 293 0;
#X connect 288 0 289 0;
#X connect 288 0 291 0;
#X connect 289 0 294 0;
#X connect 290 0 292 0;
#X connect 291 0 295 0;
#X connect 292 0 296 0;
#X connect 293 0 297 0;
#X connect 294 0 298 0;
#X connect 295 0 299 0;
#X connect 296 0 297 0;
#X connect 297 0 300 0;
#X connect 298 0 297 0;
#X connect 299 0 297 0;
#X connect 300 0 321 0;
#X connect 301 0 324 0;
#X connect 301 1 325 0;
#X connect 303 0 297 1;
#X connect 304 0 310 0;
#X connect 305 0 306 0;
#X connect 306 0 307 0;
#X connect 306 0 308 0;
#X connect 306 0 309 0;
#X connect 307 0 301 0;
#X connect 308 0 301 0;
#X connect 309 0 301 0;
#X connect 310 0 303 0;
#X connect 311 0 329 0;
#X connect 311 1 330 0;
#X connect 312 0 326 0;
#X connect 314 0 315 0;
#X connect 315 0 311 1;
#X connect 317 0 318 0;
#X connect 317 0 318 1;
#X connect 321 0 301 0;
#X connect 322 0 278 0;
#X connect 322 0 304 0;
#X connect 323 0 280 0;
#X connect 324 0 302 0;
#X connect 325 0 302 1;
#X connect 326 0 311 0;
#X connect 327 0 331 0;
#X connect 329 0 319 0;
#X connect 330 0 320 0;
#X connect 331 0 332 0;
#X connect 332 0 328 0;
#X connect 332 0 328 1;
#X connect 333 0 314 0;
#X connect 334 0 312 0;
